<svg id="visual" viewBox="0 0 960 540" width="960" height="540" xmlns="http://www.w3.org/2000/svg" xmlns:xlink="http://www.w3.org/1999/xlink" version="1.1"><rect x="0" y="0" width="960" height="540" fill="#0575E6"></rect><defs><linearGradient id="grad1_0" x1="43.8%" y1="0%" x2="100%" y2="100%"><stop offset="14.444444444444446%" stop-color="#00f260" stop-opacity="1"></stop><stop offset="85.55555555555554%" stop-color="#00f260" stop-opacity="1"></stop></linearGradient></defs><defs><linearGradient id="grad1_1" x1="43.8%" y1="0%" x2="100%" y2="100%"><stop offset="14.444444444444446%" stop-color="#00f260" stop-opacity="1"></stop><stop offset="85.55555555555554%" stop-color="#00c3f4" stop-opacity="1"></stop></linearGradient></defs><defs><linearGradient id="grad1_2" x1="43.8%" y1="0%" x2="100%" y2="100%"><stop offset="14.444444444444446%" stop-color="#0575e6" stop-opacity="1"></stop><stop offset="85.55555555555554%" stop-color="#00c3f4" stop-opacity="1"></stop></linearGradient></defs><defs><linearGradient id="grad2_0" x1="0%" y1="0%" x2="56.3%" y2="100%"><stop offset="14.444444444444446%" stop-color="#00f260" stop-opacity="1"></stop><stop offset="85.55555555555554%" stop-color="#00f260" stop-opacity="1"></stop></linearGradient></defs><defs><linearGradient id="grad2_1" x1="0%" y1="0%" x2="56.3%" y2="100%"><stop offset="14.444444444444446%" stop-color="#00c3f4" stop-opacity="1"></stop><stop offset="85.55555555555554%" stop-color="#00f260" stop-opacity="1"></stop></linearGradient></defs><defs><linearGradient id="grad2_2" x1="0%" y1="0%" x2="56.3%" y2="100%"><stop offset="14.444444444444446%" stop-color="#00c3f4" stop-opacity="1"></stop><stop offset="85.55555555555554%" stop-color="#0575e6" stop-opacity="1"></stop></linearGradient></defs><g transform="translate(960, 0)"><path d="M0 486C-27.8 475.2 -55.7 464.4 -78.3 444.1C-100.9 423.9 -118.3 394.3 -138.5 380.6C-158.7 366.9 -181.7 369.1 -218 377.6C-254.3 386.1 -303.9 400.9 -312.4 372.3C-320.8 343.7 -288.1 271.5 -275.8 231.4C-263.4 191.3 -271.5 183.1 -307.4 177.5C-343.4 171.9 -407.2 169 -406.9 148.1C-406.6 127.2 -342.2 88.4 -344.7 60.8C-347.2 33.1 -416.6 16.6 -486 0L0 0Z" fill="#00a0ff"></path><path d="M0 324C-18.6 316.8 -37.1 309.6 -52.2 296.1C-67.3 282.6 -78.9 262.9 -92.3 253.7C-105.8 244.6 -121.1 246 -145.3 251.7C-169.5 257.4 -202.6 267.3 -208.3 248.2C-213.9 229.1 -192.1 181 -183.9 154.3C-175.6 127.5 -181 122 -205 118.3C-228.9 114.6 -271.5 112.6 -271.3 98.7C-271.1 84.8 -228.1 59 -229.8 40.5C-231.5 22.1 -277.7 11 -324 0L0 0Z" fill="#00deb5"></path><path d="M0 162C-9.3 158.4 -18.6 154.8 -26.1 148C-33.6 141.3 -39.4 131.4 -46.2 126.9C-52.9 122.3 -60.6 123 -72.7 125.9C-84.8 128.7 -101.3 133.6 -104.1 124.1C-106.9 114.6 -96 90.5 -91.9 77.1C-87.8 63.8 -90.5 61 -102.5 59.2C-114.5 57.3 -135.7 56.3 -135.6 49.4C-135.5 42.4 -114.1 29.5 -114.9 20.3C-115.7 11 -138.9 5.5 -162 0L0 0Z" fill="#00f260"></path></g><g transform="translate(0, 540)"><path d="M0 -486C31.7 -493.8 63.4 -501.6 84.4 -478.6C105.4 -455.7 115.7 -401.9 142.6 -391.9C169.6 -381.8 213.1 -415.3 236 -408.8C258.9 -402.2 261 -355.5 275.1 -327.9C289.2 -300.2 315.4 -291.6 321.7 -270C328.1 -248.4 314.8 -213.8 341.2 -197C367.7 -180.2 433.9 -181.3 444.5 -161.8C455.1 -142.3 410.1 -102.3 407.7 -71.9C405.4 -41.5 445.7 -20.8 486 0L0 0Z" fill="#00a0ff"></path><path d="M0 -324C21.1 -329.2 42.3 -334.4 56.3 -319.1C70.3 -303.8 77.1 -268 95.1 -261.2C113 -254.5 142.1 -276.9 157.3 -272.5C172.6 -268.1 174 -237 183.4 -218.6C192.8 -200.1 210.2 -194.4 214.5 -180C218.7 -165.6 209.9 -142.5 227.5 -131.3C245.1 -120.2 289.2 -120.8 296.3 -107.9C303.4 -94.9 273.4 -68.2 271.8 -47.9C270.2 -27.7 297.1 -13.8 324 0L0 0Z" fill="#00deb5"></path><path d="M0 -162C10.6 -164.6 21.1 -167.2 28.1 -159.5C35.1 -151.9 38.6 -134 47.5 -130.6C56.5 -127.3 71 -138.4 78.7 -136.3C86.3 -134.1 87 -118.5 91.7 -109.3C96.4 -100.1 105.1 -97.2 107.2 -90C109.4 -82.8 104.9 -71.3 113.7 -65.7C122.6 -60.1 144.6 -60.4 148.2 -53.9C151.7 -47.4 136.7 -34.1 135.9 -24C135.1 -13.8 148.6 -6.9 162 0L0 0Z" fill="#00f260"></path></g></svg>